<?xml version="1.0" encoding="UTF-8" standalone="no"?>
<svg
   width="512"
   height="512"
   viewBox="0 0 512 512"
   fill="none"
   version="1.1"
   id="svg81"
   sodipodi:docname="icon.svg"
   inkscape:export-filename="icon.png"
   inkscape:export-xdpi="96"
   inkscape:export-ydpi="96"
   inkscape:version="1.2.2 (b0a8486, 2022-12-01)"
   xmlns:inkscape="http://www.inkscape.org/namespaces/inkscape"
   xmlns:sodipodi="http://sodipodi.sourceforge.net/DTD/sodipodi-0.dtd"
   xmlns="http://www.w3.org/2000/svg"
   xmlns:svg="http://www.w3.org/2000/svg">
  <sodipodi:namedview
     id="namedview83"
     pagecolor="#ffffff"
     bordercolor="#000000"
     borderopacity="0.25"
     inkscape:showpageshadow="2"
     inkscape:pageopacity="0.0"
     inkscape:pagecheckerboard="0"
     inkscape:deskcolor="#d1d1d1"
     showgrid="false"
     inkscape:zoom="0.4609375"
     inkscape:cx="257.08475"
     inkscape:cy="256"
     inkscape:window-width="1470"
     inkscape:window-height="920"
     inkscape:window-x="0"
     inkscape:window-y="36"
     inkscape:window-maximized="0"
     inkscape:current-layer="svg81" />
  <!-- Background gradient -->
  <defs
     id="defs21">
    <linearGradient
       id="bgGradient"
       x1="0%"
       y1="0%"
       x2="100%"
       y2="100%">
      <stop
         offset="0%"
         style="stop-color:#667eea;stop-opacity:1"
         id="stop2" />
      <stop
         offset="100%"
         style="stop-color:#764ba2;stop-opacity:1"
         id="stop4" />
    </linearGradient>
    <linearGradient
       id="brushGradient"
       x1="379.66257"
       y1="147.83456"
       x2="441.86385"
       y2="210.03585"
       gradientTransform="matrix(0.85207241,0,0,1.1736092,-260.20942,201.32042)"
       gradientUnits="userSpaceOnUse">
      <stop
         offset="0%"
         style="stop-color:#f093fb;stop-opacity:1"
         id="stop7" />
      <stop
         offset="100%"
         style="stop-color:#f5576c;stop-opacity:1"
         id="stop9" />
    </linearGradient>
    <filter
       id="glow"
       x="-0.034579439"
       y="-0.037"
       width="1.0733583"
       height="1.0760711">
      <feGaussianBlur
         stdDeviation="4"
         result="coloredBlur"
         id="feGaussianBlur12" />
      <feMerge
         id="feMerge18">
        <feMergeNode
           in="coloredBlur"
           id="feMergeNode14" />
        <feMergeNode
           in="SourceGraphic"
           id="feMergeNode16" />
      </feMerge>
    </filter>
  </defs>
  <!-- Rounded square background -->
  <rect
     width="512"
     height="512"
     rx="115"
     fill="url(#bgGradient)"
     id="rect23" />
  <!-- AI Brain circuit pattern (subtle background) -->
  <g
     opacity="0.15"
     id="g49">
    <circle
       cx="140"
       cy="140"
       r="4"
       fill="white"
       id="circle25" />
    <circle
       cx="200"
       cy="120"
       r="4"
       fill="white"
       id="circle27" />
    <circle
       cx="180"
       cy="180"
       r="4"
       fill="white"
       id="circle29" />
    <line
       x1="140"
       y1="140"
       x2="200"
       y2="120"
       stroke="white"
       stroke-width="2"
       id="line31" />
    <line
       x1="140"
       y1="140"
       x2="180"
       y2="180"
       stroke="white"
       stroke-width="2"
       id="line33" />
    <line
       x1="200"
       y1="120"
       x2="180"
       y2="180"
       stroke="white"
       stroke-width="2"
       id="line35" />
    <circle
       cx="372"
       cy="340"
       r="4"
       fill="white"
       id="circle37" />
    <circle
       cx="312"
       cy="360"
       r="4"
       fill="white"
       id="circle39" />
    <circle
       cx="332"
       cy="300"
       r="4"
       fill="white"
       id="circle41" />
    <line
       x1="372"
       y1="340"
       x2="312"
       y2="360"
       stroke="white"
       stroke-width="2"
       id="line43" />
    <line
       x1="372"
       y1="340"
       x2="332"
       y2="300"
       stroke="white"
       stroke-width="2"
       id="line45" />
    <line
       x1="312"
       y1="360"
       x2="332"
       y2="300"
       stroke="white"
       stroke-width="2"
       id="line47" />
  </g>
  <!-- Main icon: Magic paintbrush with sparkles -->
  <g
     filter="url(#glow)"
     id="g77">
    <!-- Paintbrush handle -->
    <path
       d="M 180 380 L 240 320 L 260 340 L 200 400 Z"
       fill="#8B5CF6"
       stroke="#6D28D9"
       stroke-width="3"
       id="path51" />
    <path
       d="M 240 320 L 340 220 L 360 240 L 260 340 Z"
       fill="#A78BFA"
       stroke="#8B5CF6"
       stroke-width="3"
       id="path53" />
    <!-- Brush bristles -->
    <ellipse
       cx="89.790573"
       cy="411.3204"
       rx="25"
       ry="35"
       transform="rotate(-45)"
       fill="url(#brushGradient)"
       stroke="#ec4899"
       stroke-width="3"
       id="ellipse55"
       style="fill:url(#brushGradient)" />
    <!-- AI Sparkles/Stars -->
    <g
       fill="#fcd34d"
       stroke="#f59e0b"
       stroke-width="2"
       id="g65"
       transform="translate(4.3389831,17.355932)">
      <!-- Large sparkle -->
      <path
         d="m 380,160 8,20 20,8 -20,8 -8,20 -8,-20 -20,-8 20,-8 z"
         id="path57" />
      <!-- Medium sparkle -->
      <path
         d="m 320,140 5,12 12,5 -12,5 -5,12 -5,-12 -12,-5 12,-5 z"
         id="path59" />
      <!-- Small sparkle -->
      <path
         d="m 410,210 3,8 8,3 -8,3 -3,8 -3,-8 -8,-3 8,-3 z"
         id="path61" />
      <!-- Tiny sparkle -->
      <path
         d="m 290,190 2,5 5,2 -5,2 -2,5 -2,-5 -5,-2 5,-2 z"
         id="path63" />
    </g>
    <!-- Paint stroke/wave -->
    <path
       d="M 160 360 Q 140 340 130 310 Q 120 280 130 250"
       stroke="#FCD34D"
       stroke-width="8"
       stroke-linecap="round"
       fill="none"
       opacity="0.7"
       id="path67" />
    <!-- Image frame icon (representing generated images) -->
    <g
       transform="translate(100, 100)"
       id="g75">
      <rect
         x="0"
         y="0"
         width="80"
         height="80"
         rx="8"
         fill="white"
         opacity="0.9"
         stroke="#8B5CF6"
         stroke-width="3"
         id="rect69" />
      <circle
         cx="25"
         cy="30"
         r="8"
         fill="#FCD34D"
         id="circle71" />
      <path
         d="M 10 60 L 30 40 L 50 55 L 70 35 L 70 70 L 10 70 Z"
         fill="#A78BFA"
         id="path73" />
    </g>
  </g>
  <!-- Subtle shine effect -->
  <ellipse
     cx="150"
     cy="120"
     rx="80"
     ry="60"
     fill="white"
     opacity="0.1"
     transform="rotate(-30 150 120)"
     id="ellipse79" />
</svg>
